<?xml version="1.0" encoding="iso-8859-1"?>
<!-- Uploaded to: SVG Repo, www.svgrepo.com, Generator: SVG Repo Mixer Tools -->
<svg fill="#000000" height="800px" width="800px" version="1.1" id="Layer_1" xmlns="http://www.w3.org/2000/svg" xmlns:xlink="http://www.w3.org/1999/xlink" 
	 viewBox="0 0 512 512" xml:space="preserve">
<g>
	<g>
		<g>
			<path d="M139.793,173.193l42.667,21.333c10.538,5.269,23.353,0.998,28.622-9.541s0.998-23.353-9.541-28.622l-42.667-21.333
				c-10.538-5.269-23.353-0.998-28.622,9.541S129.255,167.924,139.793,173.193z"/>
			<path d="M139.793,258.526l42.667,21.333c10.538,5.269,23.353,0.998,28.622-9.541s0.998-23.353-9.541-28.622l-42.667-21.333
				c-10.538-5.269-23.353-0.998-28.622,9.541S129.255,253.257,139.793,258.526z"/>
			<path d="M139.793,343.86l42.667,21.333c10.538,5.269,23.353,0.998,28.622-9.541s0.998-23.353-9.541-28.622l-42.667-21.333
				c-10.538-5.269-23.353-0.998-28.622,9.541S129.255,338.591,139.793,343.86z"/>
			<path d="M329.541,194.526l42.667-21.333c10.538-5.269,14.81-18.083,9.541-28.622s-18.083-14.81-28.622-9.541l-42.667,21.333
				c-10.538,5.269-14.81,18.083-9.541,28.622S319.002,199.796,329.541,194.526z"/>
			<path d="M329.541,279.86l42.667-21.333c10.538-5.269,14.81-18.083,9.541-28.622s-18.083-14.81-28.622-9.541l-42.667,21.333
				c-10.538,5.269-14.81,18.083-9.541,28.622S319.002,285.129,329.541,279.86z"/>
			<path d="M329.541,365.193l42.667-21.333c10.538-5.269,14.81-18.083,9.541-28.622s-18.083-14.81-28.622-9.541l-42.667,21.333
				c-10.538,5.269-14.81,18.083-9.541,28.622S319.002,370.462,329.541,365.193z"/>
			<path d="M490.667,68.779H448V37.888c0-14.895-14.877-25.205-28.824-19.975L256,79.104L92.824,17.913
				C78.877,12.683,64,22.993,64,37.888v31.373L21.575,68.78C9.699,68.645,0,78.235,0,90.112v384
				c0,11.782,9.551,21.333,21.333,21.333H255.26c0.014,0,0.027,0,0.041,0.001c0.232,0.008,0.465,0.011,0.699,0.011
				c0.234,0,0.466-0.003,0.699-0.011c0.014,0,0.027,0,0.041-0.001h233.927c11.782,0,21.333-9.551,21.333-21.333v-384
				C512,78.33,502.449,68.779,490.667,68.779z M405.333,90.112v305.216l-128,48V116.672l128-48V90.112z M106.667,68.672l128,48
				v326.656l-128-48V90.837V68.672z M42.667,111.688L64,111.93v298.182c0,0.886,0.07,1.76,0.177,2.624
				c0.027,0.219,0.043,0.441,0.077,0.659c0.029,0.183,0.073,0.362,0.106,0.544c0.064,0.351,0.123,0.704,0.205,1.05
				c0.058,0.248,0.135,0.489,0.202,0.734c0.075,0.274,0.141,0.551,0.226,0.821c0.074,0.235,0.167,0.463,0.249,0.695
				c0.097,0.273,0.185,0.549,0.293,0.817c0.082,0.205,0.181,0.403,0.27,0.605c0.125,0.286,0.244,0.575,0.381,0.855
				c0.122,0.247,0.261,0.485,0.391,0.727c0.122,0.225,0.235,0.456,0.365,0.677c0.124,0.211,0.264,0.412,0.395,0.618
				c0.154,0.242,0.3,0.489,0.463,0.725c0.117,0.169,0.248,0.329,0.371,0.495c0.193,0.262,0.38,0.527,0.584,0.78
				c0.135,0.167,0.284,0.324,0.425,0.487c0.206,0.24,0.407,0.484,0.624,0.715c0.161,0.171,0.336,0.33,0.503,0.496
				c0.211,0.21,0.415,0.425,0.635,0.626c0.192,0.175,0.397,0.337,0.596,0.505c0.209,0.178,0.412,0.363,0.629,0.533
				c0.198,0.156,0.41,0.297,0.614,0.445c0.23,0.168,0.454,0.343,0.692,0.501c0.224,0.15,0.461,0.284,0.692,0.426
				c0.231,0.142,0.455,0.292,0.692,0.425c0.263,0.148,0.539,0.278,0.809,0.416c0.217,0.11,0.427,0.23,0.648,0.333
				c0.274,0.128,0.56,0.237,0.841,0.353c0.228,0.095,0.45,0.2,0.683,0.287l0.008,0.003c0,0,0,0,0.001,0l0.054,0.02l60.378,22.671
				H42.667V111.688z M469.333,452.779h-95.632l60.376-22.662l0.08-0.03c0,0,0,0,0.001,0l0.008-0.003
				c0.241-0.09,0.47-0.198,0.706-0.297c0.273-0.114,0.551-0.219,0.817-0.343c0.234-0.109,0.456-0.235,0.685-0.352
				c0.258-0.132,0.521-0.255,0.772-0.397c0.237-0.133,0.461-0.283,0.692-0.425c0.231-0.142,0.468-0.276,0.692-0.426
				c0.255-0.171,0.497-0.358,0.743-0.539c0.187-0.137,0.38-0.265,0.562-0.408c0.231-0.182,0.448-0.378,0.671-0.569
				c0.184-0.157,0.375-0.306,0.554-0.469c0.219-0.201,0.424-0.416,0.634-0.625c0.167-0.166,0.342-0.325,0.504-0.496
				c0.243-0.259,0.47-0.531,0.7-0.801c0.115-0.135,0.238-0.262,0.349-0.4c0.221-0.273,0.424-0.559,0.631-0.842
				c0.106-0.146,0.222-0.285,0.324-0.433c0.189-0.272,0.359-0.557,0.535-0.837c0.106-0.169,0.221-0.333,0.323-0.505
				c0.154-0.262,0.29-0.535,0.433-0.804c0.107-0.201,0.223-0.396,0.323-0.601c0.137-0.28,0.256-0.569,0.381-0.855
				c0.089-0.202,0.187-0.4,0.27-0.605c0.142-0.353,0.263-0.715,0.386-1.077c0.049-0.146,0.109-0.287,0.155-0.434
				c0.11-0.349,0.199-0.705,0.292-1.061c0.043-0.166,0.097-0.328,0.136-0.495c0.081-0.346,0.141-0.699,0.205-1.05
				c0.033-0.182,0.078-0.361,0.106-0.544c0.034-0.218,0.049-0.44,0.077-0.659c0.107-0.864,0.177-1.737,0.177-2.624V111.445h21.333
				V452.779z"/>
		</g>
	</g>
</g>
</svg>