<?xml version="1.0" encoding="UTF-8" standalone="no" ?>
<!DOCTYPE svg PUBLIC "-//W3C//DTD SVG 1.1//EN" "http://www.w3.org/Graphics/SVG/1.1/DTD/svg11.dtd">
<svg xmlns="http://www.w3.org/2000/svg" xmlns:xlink="http://www.w3.org/1999/xlink" version="1.1" width="1080" height="1080" viewBox="0 0 1080 1080" xml:space="preserve">
<desc>Created with Fabric.js 5.2.4</desc>
<defs>
</defs>
<g transform="matrix(0 0 0 0 0 0)" id="e967f679-dd89-4f31-b6ed-14a01ec3b465"  >
</g>
<g transform="matrix(1 0 0 1 540 540)" id="146efe06-265e-4da5-a4a2-fe9d69af1931"  >
<rect style="stroke: none; stroke-width: 1; stroke-dasharray: none; stroke-linecap: butt; stroke-dashoffset: 0; stroke-linejoin: miter; stroke-miterlimit: 4; fill: rgb(255,255,255); fill-rule: nonzero; opacity: 1; visibility: hidden;" vector-effect="non-scaling-stroke"  x="-540" y="-540" rx="0" ry="0" width="1080" height="1080" />
</g>
<g transform="matrix(11.97 0 0 11.97 540.02 540.03)"  >
<path style="stroke: none; stroke-width: 6; stroke-dasharray: none; stroke-linecap: butt; stroke-dashoffset: 0; stroke-linejoin: miter; stroke-miterlimit: 4; fill: rgb(0,0,0); fill-rule: nonzero; opacity: 1;" vector-effect="non-scaling-stroke"  transform=" translate(-50, -50)" d="M 29 5 C 21.303585 5.0001 15 11.30357 15 19 C 15.000165653716047 20.65678562862538 16.34321437137462 21.999834346283954 18 22 L 29.78125 22 C 28.781736 29.414003 25.341231 39.861811 22 50.1875 C 18.328707 61.5332 14.705684 72.5947 15 81 C 15 81.032 14.999786 81.06175 15 81.09375 C 15.05171 88.74685 21.335235 95.0003 29 95 L 71 95 C 78.696403 94.9999 85 88.6964 85 81 C 84.99983434628395 79.34321437137463 83.65678562862537 78.00016565371605 82 78 L 70.3125 78 C 71.289207 70.948526 74.396281 61.035289 77.5625 51.21875 C 81.371711 39.40859 85.297165 27.74941 85 19 C 84.999345 18.9807 85.000695 18.9567 85 18.9375 C 84.999905 18.9163 85.00019 18.8961 85 18.875 C 84.93118 11.23629 78.654274 4.99931 71 5 L 29 5 z M 29 11 L 59.6875 11 C 58.640212 12.48851 57.950769 14.18926 57.53125 16 L 21.59375 16 C 22.765001 13.04694 25.604471 11.00004 29 11 z M 69.03125 11 L 71 11 C 75.453654 10.9996 79 14.54623 79 19 C 78.99951173777622 19.031248092800006 78.99951173777622 19.062501907199994 79 19.09375 C 79.252006 25.66875 75.695966 37.52845 71.875 49.375 C 68.054034 61.2216 64 73.1001 64 82 C 64 84.539806 64.23535 86.907268 65.15625 89 L 29 89 C 24.546252 89.0001 21 85.4538 21 81 C 21.00086806294092 80.95833785453296 21.00086806294092 80.91666214546706 21 80.875 C 20.758281 74.5684 24.049238 63.37155 27.71875 52.03125 C 31.14682 41.437048 34.859661 30.659266 35.84375 22 L 60 22 C 61.65678562862538 21.99983434628395 62.999834346283954 20.65678562862538 63 19 C 63 15.73174 65.949576 12.09506 69.03125 11 z M 41.6875 27 C 40.61556941430636 27.05564301551274 39.65477295737416 27.678991530693146 39.16710665667767 28.635188636360102 C 38.679440355981164 29.591385742027057 38.73901022610939 30.735127248489057 39.323372328819254 31.6354895414786 C 39.907734431529114 32.53585183446814 40.92808880986879 33.056015410311474 42 33 L 70 33 C 71.08190774973271 33.015300868636466 72.08824409371483 32.446874111492015 72.63366316445958 31.512381450857013 C 73.1790822352043 30.577888790222016 73.1790822352043 29.422111209777984 72.63366316445958 28.487618549142987 C 72.08824409371483 27.553125888507985 71.08190774973271 26.984699131363534 70 27 L 42 27 C 41.89590405768832 26.994571512066415 41.79159594231168 26.994571512066415 41.6875 27 z M 38.6875 37 C 37.61556941430636 37.055643015512736 36.65477295737416 37.678991530693146 36.16710665667767 38.6351886363601 C 35.679440355981164 39.59138574202706 35.73901022610939 40.73512724848906 36.323372328819254 41.6354895414786 C 36.907734431529114 42.53585183446814 37.92808880986879 43.056015410311474 39 43 L 67 43 C 68.08190774973271 43.015300868636466 69.08824409371483 42.446874111492015 69.63366316445958 41.51238145085701 C 70.1790822352043 40.57788879022201 70.1790822352043 39.42211120977799 69.63366316445958 38.48761854914299 C 69.08824409371483 37.553125888507985 68.08190774973271 36.984699131363534 67 37 L 39 37 C 38.89590405768832 36.994571512066415 38.79159594231168 36.994571512066415 38.6875 37 z M 35.6875 47 C 34.61556941430636 47.055643015512736 33.65477295737416 47.678991530693146 33.16710665667767 48.6351886363601 C 32.679440355981164 49.59138574202706 32.73901022610939 50.73512724848906 33.323372328819254 51.6354895414786 C 33.907734431529114 52.53585183446814 34.92808880986879 53.056015410311474 36 53 L 64 53 C 65.08190774973271 53.015300868636466 66.08824409371483 52.446874111492015 66.63366316445958 51.51238145085701 C 67.1790822352043 50.57788879022201 67.1790822352043 49.42211120977799 66.63366316445958 48.48761854914299 C 66.08824409371483 47.553125888507985 65.08190774973271 46.984699131363534 64 47 L 36 47 C 35.89590405768832 46.994571512066415 35.79159594231168 46.994571512066415 35.6875 47 z M 32.6875 57 C 31.615569414306353 57.055643015512736 30.654772957374167 57.678991530693146 30.167106656677667 58.6351886363601 C 29.679440355981164 59.59138574202706 29.739010226109393 60.73512724848906 30.323372328819254 61.6354895414786 C 30.907734431529114 62.53585183446814 31.928088809868786 63.056015410311474 33 63 L 61 63 C 62.081907749732714 63.015300868636466 63.088244093714835 62.446874111492015 63.63366316445957 61.51238145085701 C 64.1790822352043 60.57788879022201 64.1790822352043 59.42211120977799 63.63366316445957 58.48761854914299 C 63.088244093714835 57.553125888507985 62.081907749732714 56.984699131363534 61 57 L 33 57 C 32.89590405768832 56.994571512066415 32.79159594231168 56.994571512066415 32.6875 57 z M 29.6875 67 C 28.615569414306353 67.05564301551274 27.654772957374167 67.67899153069315 27.167106656677667 68.6351886363601 C 26.679440355981164 69.59138574202706 26.739010226109393 70.73512724848906 27.323372328819254 71.63548954147859 C 27.907734431529114 72.53585183446813 28.928088809868786 73.05601541031147 30 73 L 58 73 C 59.081907749732714 73.01530086863646 60.088244093714835 72.44687411149202 60.63366316445957 71.51238145085702 C 61.179082235204305 70.57788879022202 61.179082235204305 69.42211120977798 60.63366316445957 68.48761854914298 C 60.088244093714835 67.55312588850798 59.081907749732714 66.98469913136354 58 67 L 30 67 C 29.895904057688323 66.99457151206641 29.791595942311677 66.99457151206641 29.6875 67 z M 28.6875 77 C 27.615569414306353 77.05564301551274 26.654772957374167 77.67899153069315 26.167106656677667 78.6351886363601 C 25.679440355981164 79.59138574202706 25.739010226109393 80.73512724848906 26.323372328819254 81.63548954147859 C 26.907734431529114 82.53585183446813 27.928088809868786 83.05601541031147 29 83 L 57 83 C 58.081907749732714 83.01530086863646 59.088244093714835 82.44687411149202 59.63366316445957 81.51238145085702 C 60.179082235204305 80.57788879022202 60.179082235204305 79.42211120977798 59.63366316445957 78.48761854914298 C 59.088244093714835 77.55312588850798 58.081907749732714 76.98469913136354 57 77 L 29 77 C 28.895904057688323 76.99457151206641 28.791595942311677 76.99457151206641 28.6875 77 z M 70.125 84 L 78.40625 84 C 77.604952 85.999319 76.020309 87.591975 74.03125 88.40625 C 74.022432 88.40986 74.008835 88.402671 74 88.40625 C 72.005033 88.40625 71.540976 88.03445 71 87.21875 C 70.611578 86.633003 70.289352 85.53425 70.125 84 z" stroke-linecap="round" />
</g>
</svg>