<svg version="1.1" id="Layer_1" xmlns="http://www.w3.org/2000/svg" xmlns:xlink="http://www.w3.org/1999/xlink" x="0px" y="0px"
	 width="100%" viewBox="0 0 1892 546" enable-background="new 0 0 1892 546" xml:space="preserve">
<path fill="#FEFFFF" opacity="1.000000" stroke="none" 
	d="
M1268.000000,547.000000 
	C845.333313,547.000000 423.166656,547.000000 1.000000,547.000000 
	C1.000000,365.000000 1.000000,183.000000 1.000000,1.000000 
	C631.666687,1.000000 1262.333374,1.000000 1893.000000,1.000000 
	C1893.000000,183.000000 1893.000000,365.000000 1893.000000,547.000000 
	C1684.833374,547.000000 1476.666626,547.000000 1268.000000,547.000000 
M334.462463,220.021271 
	C333.000916,201.764008 331.556274,183.505386 330.072815,165.249908 
	C328.773621,149.262573 336.098724,137.546280 348.849640,129.092453 
	C359.075256,122.312874 368.778107,127.085999 369.939484,139.344254 
	C371.902435,160.063110 373.487366,180.821198 374.955597,201.582275 
	C375.877533,214.618958 376.296143,227.691238 376.979370,241.533234 
	C379.397888,239.821777 381.160706,238.660889 382.831085,237.379456 
	C413.573975,213.795288 442.141876,187.833679 468.348511,159.275726 
	C471.146027,156.227173 474.147369,153.240829 477.500641,150.852570 
	C484.961365,145.538910 488.909851,145.820007 496.003876,151.684479 
	C496.003876,150.087006 496.003845,148.823593 496.003845,147.560181 
	C496.003784,119.564308 496.013397,91.568436 495.998657,63.572578 
	C495.993164,53.147858 491.987976,49.204498 481.390228,49.203922 
	C345.910217,49.196556 210.430222,49.195679 74.950211,49.202473 
	C63.667557,49.203037 59.907764,52.940220 59.907387,64.105019 
	C59.902790,199.585022 59.902752,335.065033 59.907249,470.545044 
	C59.907627,481.877991 63.430813,485.401245 74.861595,485.404785 
	C122.687874,485.419525 170.514145,485.410614 218.340424,485.395081 
	C220.088486,485.394531 221.836487,485.234100 223.374237,485.158508 
	C219.177933,439.019012 215.038116,393.500549 211.019440,349.314117 
	C194.358826,347.156006 178.292709,345.709503 162.481857,342.851013 
	C146.175415,339.902954 130.709579,334.241516 117.457504,323.691620 
	C111.914383,319.278809 109.048660,313.694550 110.157555,306.674072 
	C112.128876,294.193390 119.075546,285.000854 129.922913,278.750122 
	C133.531693,276.670563 137.156982,276.680023 140.536453,279.655731 
	C151.313171,289.144775 164.188202,294.546326 177.949188,297.641571 
	C187.898102,299.879364 198.100128,300.991913 207.492249,302.494781 
	C207.492249,290.875549 207.447128,280.410400 207.502335,269.945801 
	C207.595474,252.291992 207.125900,234.604294 208.088120,216.996155 
	C208.807358,203.834686 215.562576,193.315842 227.084396,186.413116 
	C233.210449,182.742996 240.144638,182.769394 243.574326,187.374954 
	C246.037155,190.682190 247.598434,195.442612 247.700912,199.600632 
	C248.443726,229.738174 248.688797,259.887787 249.167786,290.032379 
	C249.219040,293.257111 249.760818,296.474091 250.087128,299.818634 
	C279.946838,294.920929 307.398712,285.263641 332.749969,269.901459 
	C334.380432,268.913452 336.272522,266.571289 336.236176,264.898285 
	C335.917816,250.244064 335.188141,235.598801 334.462463,220.021271 
M496.004395,228.500000 
	C496.004395,209.600067 496.004395,190.700150 496.004395,171.724655 
	C492.421692,176.594254 489.401154,181.529739 485.589081,185.750305 
	C454.006134,220.717590 419.181427,252.137650 381.317139,280.174347 
	C378.812378,282.028992 377.703369,283.865784 377.702423,287.121246 
	C377.694946,312.273682 377.729645,337.431885 377.206116,362.576965 
	C376.446930,399.043976 375.217957,435.501099 374.225403,471.963440 
	C374.105438,476.369720 374.209076,480.782074 374.209076,485.410889 
	C376.051178,485.410889 377.376892,485.410980 378.702606,485.410919 
	C412.854248,485.409515 447.005920,485.425354 481.157562,485.396942 
	C492.465027,485.387543 496.002502,481.766418 496.002869,470.394073 
	C496.005371,390.096039 496.004333,309.798035 496.004395,228.500000 
M661.500061,139.464142 
	C641.405029,139.464142 621.309998,139.464142 600.593262,139.464142 
	C600.593262,112.272285 600.593262,85.729065 600.593262,59.272736 
	C588.899475,59.272736 577.838440,59.272736 566.823364,59.272736 
	C566.823364,124.010780 566.823364,188.372833 566.823364,252.587860 
	C578.292969,252.587860 589.354980,252.587860 600.893982,252.587860 
	C600.893982,225.296829 600.893982,198.395172 600.893982,171.328094 
	C631.792847,171.328094 662.201599,171.328094 693.227478,171.328094 
	C693.227478,198.605576 693.227478,225.643585 693.227478,252.598709 
	C704.910828,252.598709 715.972534,252.598709 727.012451,252.598709 
	C727.012451,187.959061 727.012451,123.700508 727.012451,59.189686 
	C715.718689,59.189686 704.666443,59.189686 693.027466,59.189686 
	C693.027466,86.032066 693.027466,112.588051 693.027466,139.464600 
	C682.462280,139.464600 672.481201,139.464600 661.500061,139.464142 
M1103.055786,157.669800 
	C1099.075195,177.371857 1099.690796,196.685471 1107.726685,215.433105 
	C1126.509888,259.254486 1186.828491,272.424500 1216.722778,231.039536 
	C1216.954834,230.718109 1217.456909,230.591797 1218.498779,229.989441 
	C1218.498779,237.919693 1218.498779,245.314743 1218.498779,252.628998 
	C1229.977173,252.628998 1240.883179,252.628998 1251.827637,252.628998 
	C1251.827637,185.185760 1251.827637,118.093277 1251.827637,50.774139 
	C1240.735107,50.774139 1229.845825,50.774139 1218.279053,50.774139 
	C1218.279053,76.572342 1218.279053,102.044243 1218.279053,128.639786 
	C1216.765015,126.975319 1216.106567,126.285439 1215.485352,125.563507 
	C1197.698242,104.890915 1175.223022,98.931343 1149.651123,106.399651 
	C1124.454956,113.758232 1109.936157,131.967682 1103.055786,157.669800 
M1708.514038,106.462196 
	C1703.909668,106.462196 1699.305176,106.462196 1694.627197,106.462196 
	C1694.627197,170.415833 1694.627197,233.632690 1694.627197,296.929016 
	C1705.882812,296.929016 1716.795532,296.929016 1728.269043,296.929016 
	C1728.269043,274.969910 1728.269043,253.307556 1728.269043,231.645218 
	C1729.739990,231.896225 1730.155640,232.616592 1730.668091,233.259796 
	C1757.518799,266.948792 1806.578979,260.905914 1830.041016,230.632584 
	C1849.782227,205.160187 1851.590210,162.504623 1834.034912,134.504501 
	C1811.765991,98.986427 1758.085571,90.202690 1730.481934,127.863159 
	C1730.000854,128.519562 1729.171265,128.920486 1727.828247,129.967957 
	C1727.828247,121.667419 1727.828247,114.250252 1727.828247,106.462677 
	C1721.457275,106.462677 1715.482788,106.462677 1708.514038,106.462196 
M258.568146,407.967316 
	C261.222778,433.732697 263.877411,459.498077 266.519867,485.145386 
	C289.544830,485.145386 311.741180,485.145386 334.297638,485.145386 
	C336.632690,426.491364 337.703278,368.229126 337.263763,308.860779 
	C310.053131,324.300476 282.340240,335.167084 252.692429,342.085632 
	C254.619720,364.009369 256.512085,385.535950 258.568146,407.967316 
M1578.674683,104.994598 
	C1563.424927,106.103004 1548.918213,109.973808 1534.689941,116.626068 
	C1537.745850,125.367531 1540.726685,133.894318 1543.803223,142.694839 
	C1546.255493,141.790482 1548.109009,141.130280 1549.945679,140.425888 
	C1563.354736,135.283478 1577.199585,133.075348 1591.562134,133.967178 
	C1611.963989,135.233994 1624.106812,149.211945 1621.648926,168.240906 
	C1612.343506,166.671829 1603.077881,164.583466 1593.697144,163.643021 
	C1576.913208,161.960373 1560.335693,163.141098 1545.004272,171.073120 
	C1530.078247,178.795364 1522.597290,191.388885 1521.978149,208.126740 
	C1521.331177,225.614243 1528.041870,239.248688 1543.310181,248.194458 
	C1566.393799,261.719116 1598.820923,257.591278 1617.827271,238.865387 
	C1618.933960,237.775009 1620.107788,236.752686 1622.072632,234.940140 
	C1622.072632,241.618240 1622.072632,247.167923 1622.072632,252.806931 
	C1633.027222,252.806931 1643.483765,252.806931 1654.106689,252.806931 
	C1654.255005,251.861374 1654.493286,251.060654 1654.489624,250.260986 
	C1654.351318,219.266129 1654.723877,188.256714 1653.870605,157.281113 
	C1653.144409,130.927505 1637.088745,112.095108 1611.403442,107.072548 
	C1601.072021,105.052330 1590.240356,105.590218 1578.674683,104.994598 
M765.218567,224.057907 
	C769.020996,236.001678 776.834595,244.435760 787.952820,249.939987 
	C811.200256,261.448944 841.331421,256.632751 859.766174,238.503891 
	C860.629456,237.654953 861.597168,236.912338 863.304443,235.440964 
	C863.304443,241.858154 863.304443,247.256134 863.304443,252.718201 
	C874.390137,252.718201 884.972900,252.718201 895.987671,252.718201 
	C895.987671,250.678116 895.987732,248.880936 895.987732,247.083771 
	C895.987732,221.093903 896.042175,195.103836 895.943604,169.114349 
	C895.922852,163.634140 895.588501,158.128098 894.973877,152.681900 
	C892.431152,130.149368 878.553650,114.048058 856.726746,107.757645 
	C843.831848,104.041374 830.683228,104.195747 817.559875,105.231735 
	C803.212341,106.364372 789.521240,110.310242 776.195801,116.652893 
	C779.266724,125.423714 782.256348,133.962387 785.232849,142.463623 
	C791.852356,140.353912 797.769531,138.046967 803.890198,136.602600 
	C817.798706,133.320389 831.871765,131.703781 845.680969,136.902695 
	C858.643005,141.782715 865.729736,155.351929 862.725281,168.797638 
	C861.125305,168.387863 859.523254,167.999680 857.933289,167.566986 
	C839.991577,162.684158 821.863159,161.506287 803.552795,165.072281 
	C773.200134,170.983551 757.922119,194.128021 765.218567,224.057907 
M935.944397,221.500000 
	C935.944397,231.918549 935.944397,242.337112 935.944397,252.667999 
	C947.596924,252.667999 958.513550,252.667999 969.836914,252.667999 
	C969.836914,250.395721 969.834717,248.430008 969.837219,246.464294 
	C969.870544,219.803146 969.606018,193.137131 970.041138,166.482529 
	C970.341370,148.090744 983.051636,134.936584 1000.193665,134.048279 
	C1019.295227,133.058426 1030.871704,142.901657 1033.673340,162.656082 
	C1034.068604,165.443512 1034.017700,168.306976 1034.020386,171.135391 
	C1034.044922,196.463959 1034.035278,221.792587 1034.035645,247.121185 
	C1034.035645,248.910126 1034.035645,250.699081 1034.035645,252.730728 
	C1045.403687,252.730728 1056.303955,252.730728 1067.372437,252.730728 
	C1067.512329,251.890366 1067.709229,251.259933 1067.709351,250.629486 
	C1067.716431,219.468796 1067.894897,188.306381 1067.606567,157.148285 
	C1067.490967,144.646790 1064.533447,132.699509 1056.871948,122.400734 
	C1038.508179,97.716141 997.794617,96.852249 976.357544,120.669655 
	C974.342224,122.908836 972.417175,125.229301 969.744873,128.330582 
	C969.744873,120.456291 969.744873,113.816925 969.744873,106.823441 
	C958.407471,106.823441 947.343811,106.823441 935.944397,106.823441 
	C935.944397,144.878387 935.944397,182.689194 935.944397,221.500000 
M1383.894043,230.598068 
	C1413.039185,265.233093 1472.781128,265.299042 1500.056519,229.516327 
	C1493.583618,222.712418 1487.197510,215.999786 1480.793945,209.268845 
	C1477.557983,211.964142 1474.514893,214.798798 1471.176147,217.226837 
	C1458.077026,226.752686 1443.683472,229.862244 1428.240234,224.305389 
	C1411.017456,218.108276 1402.031738,204.901321 1399.641357,187.255356 
	C1397.203491,169.258804 1402.029297,153.413879 1416.482056,141.684067 
	C1432.499878,128.684082 1454.760254,130.030640 1471.974243,144.466385 
	C1474.466675,146.556549 1476.844238,148.783569 1479.362915,151.025436 
	C1486.487183,143.413040 1493.294189,136.139816 1500.068604,128.901260 
	C1474.332764,98.376060 1424.246582,94.689217 1392.945068,120.745461 
	C1360.402954,147.834137 1356.110352,197.145142 1383.894043,230.598068 
M595.081177,438.549377 
	C585.658936,450.843048 576.382751,463.253265 566.723999,475.358246 
	C563.886230,478.914673 563.593262,482.365753 564.342834,486.489532 
	C612.244690,486.489532 659.964905,486.489532 707.783813,486.489532 
	C707.783813,482.396790 707.783813,478.631226 707.783813,474.299042 
	C666.527832,474.299042 625.505798,474.299042 583.591431,474.299042 
	C585.426941,471.815125 586.651794,470.101746 587.933167,468.431824 
	C626.968933,417.560150 665.972473,366.663635 705.128662,315.884827 
	C707.976013,312.192261 708.540283,308.693878 707.631042,304.633850 
	C661.042542,304.633850 614.827332,304.633850 568.623596,304.633850 
	C568.623596,308.785645 568.623596,312.531036 568.623596,316.808929 
	C608.486572,316.808929 648.007507,316.808929 688.520752,316.808929 
	C657.101318,357.752289 626.313171,397.872986 595.081177,438.549377 
M1296.785522,252.851135 
	C1307.696411,252.851135 1318.607422,252.851135 1329.520630,252.851135 
	C1329.520630,203.828659 1329.520630,155.434494 1329.520630,106.886795 
	C1318.209473,106.886795 1307.193848,106.886795 1295.928955,106.886795 
	C1295.928955,120.457642 1295.914429,133.606476 1295.931885,146.755264 
	C1295.978516,181.900955 1296.038696,217.046631 1296.785522,252.851135 
M879.293762,434.499969 
	C879.293762,451.774780 879.293762,469.049561 879.293762,486.529480 
	C883.822754,486.529480 887.726929,486.529480 892.116333,486.529480 
	C892.116333,484.472961 892.116272,482.678009 892.116394,480.883026 
	C892.117432,457.222778 891.932190,433.560730 892.164795,409.902771 
	C892.485474,377.277863 920.013000,355.969116 951.155457,364.072144 
	C962.827454,367.109161 971.840576,373.987854 975.854126,385.380402 
	C978.507019,392.910736 979.995911,401.197205 980.178406,409.186859 
	C980.726135,433.167847 980.377014,457.169342 980.377869,481.162811 
	C980.377930,482.932281 980.377869,484.701752 980.377869,486.458252 
	C985.021362,486.458252 988.933472,486.458252 992.865845,486.458252 
	C992.865845,456.469543 993.576843,426.805359 992.580261,397.198639 
	C992.043457,381.251160 984.328003,367.909882 970.460449,358.844177 
	C952.181152,346.894318 914.328125,344.885193 895.264038,373.595062 
	C894.531250,374.698578 893.626221,375.687653 891.858276,377.922150 
	C891.858276,368.912079 891.858276,361.511505 891.858276,354.250031 
	C887.476074,354.250031 883.569824,354.250031 879.293945,354.250031 
	C879.293945,380.903931 879.293945,407.201935 879.293762,434.499969 
M751.586914,429.499908 
	C751.586914,448.430695 751.586914,467.361481 751.586914,486.411438 
	C756.129639,486.411438 760.008484,486.411438 763.810852,486.411438 
	C763.810852,422.985443 763.810852,359.934570 763.810852,296.917053 
	C759.665039,296.917053 755.897949,296.917053 751.586548,296.917053 
	C751.586548,340.973999 751.586548,384.736938 751.586914,429.499908 
M816.259094,366.515442 
	C816.259094,406.527832 816.259094,446.540192 816.259094,486.437897 
	C821.019531,486.437897 824.927063,486.437897 828.712891,486.437897 
	C828.712891,442.071899 828.712891,398.076263 828.712891,354.258972 
	C824.418701,354.258972 820.512024,354.258972 816.259216,354.258972 
	C816.259216,358.255829 816.259216,361.889893 816.259094,366.515442 
M1303.550537,52.097401 
	C1300.782593,52.097401 1298.014771,52.097401 1295.214111,52.097401 
	C1295.214111,63.063301 1295.214111,73.414566 1295.214111,83.648514 
	C1307.272461,83.648514 1318.962524,83.648514 1330.613281,83.648514 
	C1330.613281,73.030807 1330.613281,62.802139 1330.613281,52.097443 
	C1321.736816,52.097443 1313.138306,52.097443 1303.550537,52.097401 
M830.066223,329.845215 
	C838.050232,321.076447 846.034180,312.307678 853.804260,303.773865 
	C850.213440,302.041809 845.222839,299.634521 840.014343,297.122162 
	C832.708191,308.183319 825.679382,318.815491 818.672119,329.461914 
	C818.344116,329.960144 818.208313,330.584900 817.432251,332.534149 
	C822.085938,331.687622 825.784729,331.014801 830.066223,329.845215 
z"/>
<path fill="#01B0D5" opacity="1.000000" stroke="none" 
	d="
M334.521484,220.486069 
	C335.188141,235.598801 335.917816,250.244064 336.236176,264.898285 
	C336.272522,266.571289 334.380432,268.913452 332.749969,269.901459 
	C307.398712,285.263641 279.946838,294.920929 250.087128,299.818634 
	C249.760818,296.474091 249.219040,293.257111 249.167786,290.032379 
	C248.688797,259.887787 248.443726,229.738174 247.700912,199.600632 
	C247.598434,195.442612 246.037155,190.682190 243.574326,187.374954 
	C240.144638,182.769394 233.210449,182.742996 227.084396,186.413116 
	C215.562576,193.315842 208.807358,203.834686 208.088120,216.996155 
	C207.125900,234.604294 207.595474,252.291992 207.502335,269.945801 
	C207.447128,280.410400 207.492249,290.875549 207.492249,302.494781 
	C198.100128,300.991913 187.898102,299.879364 177.949188,297.641571 
	C164.188202,294.546326 151.313171,289.144775 140.536453,279.655731 
	C137.156982,276.680023 133.531693,276.670563 129.922913,278.750122 
	C119.075546,285.000854 112.128876,294.193390 110.157555,306.674072 
	C109.048660,313.694550 111.914383,319.278809 117.457504,323.691620 
	C130.709579,334.241516 146.175415,339.902954 162.481857,342.851013 
	C178.292709,345.709503 194.358826,347.156006 211.019440,349.314117 
	C215.038116,393.500549 219.177933,439.019012 223.374237,485.158508 
	C221.836487,485.234100 220.088486,485.394531 218.340424,485.395081 
	C170.514145,485.410614 122.687874,485.419525 74.861595,485.404785 
	C63.430813,485.401245 59.907627,481.877991 59.907249,470.545044 
	C59.902752,335.065033 59.902790,199.585022 59.907387,64.105019 
	C59.907764,52.940220 63.667557,49.203037 74.950211,49.202473 
	C210.430222,49.195679 345.910217,49.196556 481.390228,49.203922 
	C491.987976,49.204498 495.993164,53.147858 495.998657,63.572578 
	C496.013397,91.568436 496.003784,119.564308 496.003845,147.560181 
	C496.003845,148.823593 496.003876,150.087006 496.003876,151.684479 
	C488.909851,145.820007 484.961365,145.538910 477.500641,150.852570 
	C474.147369,153.240829 471.146027,156.227173 468.348511,159.275726 
	C442.141876,187.833679 413.573975,213.795288 382.831085,237.379456 
	C381.160706,238.660889 379.397888,239.821777 376.979370,241.533234 
	C376.296143,227.691238 375.877533,214.618958 374.955597,201.582275 
	C373.487366,180.821198 371.902435,160.063110 369.939484,139.344254 
	C368.778107,127.085999 359.075256,122.312874 348.849640,129.092453 
	C336.098724,137.546280 328.773621,149.262573 330.072815,165.249908 
	C331.556274,183.505386 333.000916,201.764008 334.521484,220.486069 
M221.428192,161.079453 
	C234.228180,157.848114 244.583084,151.106552 251.390762,139.613144 
	C254.191559,134.884537 255.733963,129.639954 252.206146,124.580208 
	C248.742157,119.612007 243.306595,118.972481 237.876221,119.582848 
	C224.642563,121.070320 213.987015,127.446541 205.832108,137.830704 
	C201.597504,143.222885 198.200150,149.558395 202.217438,156.182739 
	C206.395859,163.072800 213.630280,162.519699 221.428192,161.079453 
M346.590179,87.113144 
	C350.912933,81.945816 356.234894,77.307182 359.316345,71.483116 
	C363.582581,63.419769 358.813690,56.615570 349.673370,55.924797 
	C334.791718,54.800121 314.985901,66.282097 308.578125,79.748909 
	C303.958496,89.457611 308.441010,96.794014 319.213715,97.010124 
	C329.311401,97.212715 337.933685,93.106720 346.590179,87.113144 
z"/>
<path fill="#00B0D5" opacity="1.000000" stroke="none" 
	d="
M496.004395,229.000000 
	C496.004333,309.798035 496.005371,390.096039 496.002869,470.394073 
	C496.002502,481.766418 492.465027,485.387543 481.157562,485.396942 
	C447.005920,485.425354 412.854248,485.409515 378.702606,485.410919 
	C377.376892,485.410980 376.051178,485.410889 374.209076,485.410889 
	C374.209076,480.782074 374.105438,476.369720 374.225403,471.963440 
	C375.217957,435.501099 376.446930,399.043976 377.206116,362.576965 
	C377.729645,337.431885 377.694946,312.273682 377.702423,287.121246 
	C377.703369,283.865784 378.812378,282.028992 381.317139,280.174347 
	C419.181427,252.137650 454.006134,220.717590 485.589081,185.750305 
	C489.401154,181.529739 492.421692,176.594254 496.004395,171.724655 
	C496.004395,190.700150 496.004395,209.600067 496.004395,229.000000 
z"/>
<path fill="#02B0D5" opacity="1.000000" stroke="none" 
	d="
M662.000122,139.464371 
	C672.481201,139.464600 682.462280,139.464600 693.027466,139.464600 
	C693.027466,112.588051 693.027466,86.032066 693.027466,59.189686 
	C704.666443,59.189686 715.718689,59.189686 727.012451,59.189686 
	C727.012451,123.700508 727.012451,187.959061 727.012451,252.598709 
	C715.972534,252.598709 704.910828,252.598709 693.227478,252.598709 
	C693.227478,225.643585 693.227478,198.605576 693.227478,171.328094 
	C662.201599,171.328094 631.792847,171.328094 600.893982,171.328094 
	C600.893982,198.395172 600.893982,225.296829 600.893982,252.587860 
	C589.354980,252.587860 578.292969,252.587860 566.823364,252.587860 
	C566.823364,188.372833 566.823364,124.010780 566.823364,59.272736 
	C577.838440,59.272736 588.899475,59.272736 600.593262,59.272736 
	C600.593262,85.729065 600.593262,112.272285 600.593262,139.464142 
	C621.309998,139.464142 641.405029,139.464142 662.000122,139.464371 
z"/>
<path fill="#01B0D5" opacity="1.000000" stroke="none" 
	d="
M1103.140991,157.263702 
	C1109.936157,131.967682 1124.454956,113.758232 1149.651123,106.399651 
	C1175.223022,98.931343 1197.698242,104.890915 1215.485352,125.563507 
	C1216.106567,126.285439 1216.765015,126.975319 1218.279053,128.639786 
	C1218.279053,102.044243 1218.279053,76.572342 1218.279053,50.774139 
	C1229.845825,50.774139 1240.735107,50.774139 1251.827637,50.774139 
	C1251.827637,118.093277 1251.827637,185.185760 1251.827637,252.628998 
	C1240.883179,252.628998 1229.977173,252.628998 1218.498779,252.628998 
	C1218.498779,245.314743 1218.498779,237.919693 1218.498779,229.989441 
	C1217.456909,230.591797 1216.954834,230.718109 1216.722778,231.039536 
	C1186.828491,272.424500 1126.509888,259.254486 1107.726685,215.433105 
	C1099.690796,196.685471 1099.075195,177.371857 1103.140991,157.263702 
M1213.083862,204.502930 
	C1219.201172,192.976013 1220.321167,180.757507 1217.923950,168.123901 
	C1211.875122,136.245087 1175.064087,121.712219 1150.843628,141.599762 
	C1129.461548,159.156784 1128.781738,198.111923 1149.536743,216.488037 
	C1169.440674,234.110550 1197.847900,229.025513 1213.083862,204.502930 
z"/>
<path fill="#03B1D5" opacity="1.000000" stroke="none" 
	d="
M1709.011230,106.462433 
	C1715.482788,106.462677 1721.457275,106.462677 1727.828247,106.462677 
	C1727.828247,114.250252 1727.828247,121.667419 1727.828247,129.967957 
	C1729.171265,128.920486 1730.000854,128.519562 1730.481934,127.863159 
	C1758.085571,90.202690 1811.765991,98.986427 1834.034912,134.504501 
	C1851.590210,162.504623 1849.782227,205.160187 1830.041016,230.632584 
	C1806.578979,260.905914 1757.518799,266.948792 1730.668091,233.259796 
	C1730.155640,232.616592 1729.739990,231.896225 1728.269043,231.645218 
	C1728.269043,253.307556 1728.269043,274.969910 1728.269043,296.929016 
	C1716.795532,296.929016 1705.882812,296.929016 1694.627197,296.929016 
	C1694.627197,233.632690 1694.627197,170.415833 1694.627197,106.462196 
	C1699.305176,106.462196 1703.909668,106.462196 1709.011230,106.462433 
M1749.423462,221.189819 
	C1774.464478,234.848572 1803.332275,222.677612 1809.798462,194.985718 
	C1811.750366,186.626129 1812.025024,177.352783 1810.711182,168.862732 
	C1808.073853,151.820511 1798.339844,139.305038 1781.371216,134.359604 
	C1765.311523,129.679123 1751.006226,134.010422 1739.551636,146.317139 
	C1721.200928,166.032776 1722.941650,205.104095 1749.423462,221.189819 
z"/>
<path fill="#01B0D5" opacity="1.000000" stroke="none" 
	d="
M258.486298,407.514923 
	C256.512085,385.535950 254.619720,364.009369 252.692429,342.085632 
	C282.340240,335.167084 310.053131,324.300476 337.263763,308.860779 
	C337.703278,368.229126 336.632690,426.491364 334.297638,485.145386 
	C311.741180,485.145386 289.544830,485.145386 266.519867,485.145386 
	C263.877411,459.498077 261.222778,433.732697 258.486298,407.514923 
z"/>
<path fill="#02B1D5" opacity="1.000000" stroke="none" 
	d="
M1579.155518,104.979218 
	C1590.240356,105.590218 1601.072021,105.052330 1611.403442,107.072548 
	C1637.088745,112.095108 1653.144409,130.927505 1653.870605,157.281113 
	C1654.723877,188.256714 1654.351318,219.266129 1654.489624,250.260986 
	C1654.493286,251.060654 1654.255005,251.861374 1654.106689,252.806931 
	C1643.483765,252.806931 1633.027222,252.806931 1622.072632,252.806931 
	C1622.072632,247.167923 1622.072632,241.618240 1622.072632,234.940140 
	C1620.107788,236.752686 1618.933960,237.775009 1617.827271,238.865387 
	C1598.820923,257.591278 1566.393799,261.719116 1543.310181,248.194458 
	C1528.041870,239.248688 1521.331177,225.614243 1521.978149,208.126740 
	C1522.597290,191.388885 1530.078247,178.795364 1545.004272,171.073120 
	C1560.335693,163.141098 1576.913208,161.960373 1593.697144,163.643021 
	C1603.077881,164.583466 1612.343506,166.671829 1621.648926,168.240906 
	C1624.106812,149.211945 1611.963989,135.233994 1591.562134,133.967178 
	C1577.199585,133.075348 1563.354736,135.283478 1549.945679,140.425888 
	C1548.109009,141.130280 1546.255493,141.790482 1543.803223,142.694839 
	C1540.726685,133.894318 1537.745850,125.367531 1534.689941,116.626068 
	C1548.918213,109.973808 1563.424927,106.103004 1579.155518,104.979218 
M1622.424805,202.808121 
	C1622.505859,200.313736 1622.310669,197.771927 1622.728760,195.335388 
	C1623.464600,191.047806 1621.407349,189.198166 1617.572754,188.614151 
	C1608.229492,187.191177 1598.884644,184.757065 1589.533813,184.726822 
	C1581.956787,184.702301 1573.936768,186.533951 1566.896484,189.439957 
	C1557.874390,193.164032 1554.249268,201.312378 1555.004639,211.092941 
	C1555.715942,220.300552 1561.170044,225.864441 1569.378540,229.111893 
	C1576.885132,232.081757 1584.664429,232.062454 1592.500977,230.901855 
	C1608.762329,228.493515 1620.260132,217.958817 1622.424805,202.808121 
z"/>
<path fill="#02B1D5" opacity="1.000000" stroke="none" 
	d="
M765.126587,223.661102 
	C757.922119,194.128021 773.200134,170.983551 803.552795,165.072281 
	C821.863159,161.506287 839.991577,162.684158 857.933289,167.566986 
	C859.523254,167.999680 861.125305,168.387863 862.725281,168.797638 
	C865.729736,155.351929 858.643005,141.782715 845.680969,136.902695 
	C831.871765,131.703781 817.798706,133.320389 803.890198,136.602600 
	C797.769531,138.046967 791.852356,140.353912 785.232849,142.463623 
	C782.256348,133.962387 779.266724,125.423714 776.195801,116.652893 
	C789.521240,110.310242 803.212341,106.364372 817.559875,105.231735 
	C830.683228,104.195747 843.831848,104.041374 856.726746,107.757645 
	C878.553650,114.048058 892.431152,130.149368 894.973877,152.681900 
	C895.588501,158.128098 895.922852,163.634140 895.943604,169.114349 
	C896.042175,195.103836 895.987732,221.093903 895.987732,247.083771 
	C895.987732,248.880936 895.987671,250.678116 895.987671,252.718201 
	C884.972900,252.718201 874.390137,252.718201 863.304443,252.718201 
	C863.304443,247.256134 863.304443,241.858154 863.304443,235.440964 
	C861.597168,236.912338 860.629456,237.654953 859.766174,238.503891 
	C841.331421,256.632751 811.200256,261.448944 787.952820,249.939987 
	C776.834595,244.435760 769.020996,236.001678 765.126587,223.661102 
M841.296082,185.004013 
	C838.470520,184.838898 835.646362,184.567291 832.819092,184.528595 
	C824.265991,184.411545 815.826660,185.094330 808.129517,189.309250 
	C799.872314,193.830902 795.958618,201.020737 796.409729,210.296890 
	C796.861816,219.592606 802.031494,225.818817 810.615112,228.926285 
	C814.470581,230.322052 818.646667,231.139114 822.741882,231.515259 
	C847.640869,233.802246 864.385681,218.457565 864.122009,194.038132 
	C864.088623,190.944199 863.105530,189.514557 860.212463,188.926437 
	C854.196167,187.703461 848.204773,186.357971 841.296082,185.004013 
z"/>
<path fill="#02B1D5" opacity="1.000000" stroke="none" 
	d="
M935.944397,221.000000 
	C935.944397,182.689194 935.944397,144.878387 935.944397,106.823441 
	C947.343811,106.823441 958.407471,106.823441 969.744873,106.823441 
	C969.744873,113.816925 969.744873,120.456291 969.744873,128.330582 
	C972.417175,125.229301 974.342224,122.908836 976.357544,120.669655 
	C997.794617,96.852249 1038.508179,97.716141 1056.871948,122.400734 
	C1064.533447,132.699509 1067.490967,144.646790 1067.606567,157.148285 
	C1067.894897,188.306381 1067.716431,219.468796 1067.709351,250.629486 
	C1067.709229,251.259933 1067.512329,251.890366 1067.372437,252.730728 
	C1056.303955,252.730728 1045.403687,252.730728 1034.035645,252.730728 
	C1034.035645,250.699081 1034.035645,248.910126 1034.035645,247.121185 
	C1034.035278,221.792587 1034.044922,196.463959 1034.020386,171.135391 
	C1034.017700,168.306976 1034.068604,165.443512 1033.673340,162.656082 
	C1030.871704,142.901657 1019.295227,133.058426 1000.193665,134.048279 
	C983.051636,134.936584 970.341370,148.090744 970.041138,166.482529 
	C969.606018,193.137131 969.870544,219.803146 969.837219,246.464294 
	C969.834717,248.430008 969.836914,250.395721 969.836914,252.667999 
	C958.513550,252.667999 947.596924,252.667999 935.944397,252.667999 
	C935.944397,242.337112 935.944397,231.918549 935.944397,221.000000 
z"/>
<path fill="#02B1D5" opacity="1.000000" stroke="none" 
	d="
M1383.661133,230.332214 
	C1356.110352,197.145142 1360.402954,147.834137 1392.945068,120.745461 
	C1424.246582,94.689217 1474.332764,98.376060 1500.068604,128.901260 
	C1493.294189,136.139816 1486.487183,143.413040 1479.362915,151.025436 
	C1476.844238,148.783569 1474.466675,146.556549 1471.974243,144.466385 
	C1454.760254,130.030640 1432.499878,128.684082 1416.482056,141.684067 
	C1402.029297,153.413879 1397.203491,169.258804 1399.641357,187.255356 
	C1402.031738,204.901321 1411.017456,218.108276 1428.240234,224.305389 
	C1443.683472,229.862244 1458.077026,226.752686 1471.176147,217.226837 
	C1474.514893,214.798798 1477.557983,211.964142 1480.793945,209.268845 
	C1487.197510,215.999786 1493.583618,222.712418 1500.056519,229.516327 
	C1472.781128,265.299042 1413.039185,265.233093 1383.661133,230.332214 
z"/>
<path fill="#626262" opacity="1.000000" stroke="none" 
	d="
M595.303101,438.271545 
	C626.313171,397.872986 657.101318,357.752289 688.520752,316.808929 
	C648.007507,316.808929 608.486572,316.808929 568.623596,316.808929 
	C568.623596,312.531036 568.623596,308.785645 568.623596,304.633850 
	C614.827332,304.633850 661.042542,304.633850 707.631042,304.633850 
	C708.540283,308.693878 707.976013,312.192261 705.128662,315.884827 
	C665.972473,366.663635 626.968933,417.560150 587.933167,468.431824 
	C586.651794,470.101746 585.426941,471.815125 583.591431,474.299042 
	C625.505798,474.299042 666.527832,474.299042 707.783813,474.299042 
	C707.783813,478.631226 707.783813,482.396790 707.783813,486.489532 
	C659.964905,486.489532 612.244690,486.489532 564.342834,486.489532 
	C563.593262,482.365753 563.886230,478.914673 566.723999,475.358246 
	C576.382751,463.253265 585.658936,450.843048 595.303101,438.271545 
z"/>
<path fill="#02B1D5" opacity="1.000000" stroke="none" 
	d="
M1296.439575,252.521729 
	C1296.038696,217.046631 1295.978516,181.900955 1295.931885,146.755264 
	C1295.914429,133.606476 1295.928955,120.457642 1295.928955,106.886795 
	C1307.193848,106.886795 1318.209473,106.886795 1329.520630,106.886795 
	C1329.520630,155.434494 1329.520630,203.828659 1329.520630,252.851135 
	C1318.607422,252.851135 1307.696411,252.851135 1296.439575,252.521729 
z"/>
<path fill="#606060" opacity="1.000000" stroke="none" 
	d="
M879.293823,433.999939 
	C879.293945,407.201935 879.293945,380.903931 879.293945,354.250031 
	C883.569824,354.250031 887.476074,354.250031 891.858276,354.250031 
	C891.858276,361.511505 891.858276,368.912079 891.858276,377.922150 
	C893.626221,375.687653 894.531250,374.698578 895.264038,373.595062 
	C914.328125,344.885193 952.181152,346.894318 970.460449,358.844177 
	C984.328003,367.909882 992.043457,381.251160 992.580261,397.198639 
	C993.576843,426.805359 992.865845,456.469543 992.865845,486.458252 
	C988.933472,486.458252 985.021362,486.458252 980.377869,486.458252 
	C980.377869,484.701752 980.377930,482.932281 980.377869,481.162811 
	C980.377014,457.169342 980.726135,433.167847 980.178406,409.186859 
	C979.995911,401.197205 978.507019,392.910736 975.854126,385.380402 
	C971.840576,373.987854 962.827454,367.109161 951.155457,364.072144 
	C920.013000,355.969116 892.485474,377.277863 892.164795,409.902771 
	C891.932190,433.560730 892.117432,457.222778 892.116394,480.883026 
	C892.116272,482.678009 892.116333,484.472961 892.116333,486.529480 
	C887.726929,486.529480 883.822754,486.529480 879.293762,486.529480 
	C879.293762,469.049561 879.293762,451.774780 879.293823,433.999939 
z"/>
<path fill="#5B5B5B" opacity="1.000000" stroke="none" 
	d="
M751.586731,428.999878 
	C751.586548,384.736938 751.586548,340.973999 751.586548,296.917053 
	C755.897949,296.917053 759.665039,296.917053 763.810852,296.917053 
	C763.810852,359.934570 763.810852,422.985443 763.810852,486.411438 
	C760.008484,486.411438 756.129639,486.411438 751.586914,486.411438 
	C751.586914,467.361481 751.586914,448.430695 751.586731,428.999878 
z"/>
<path fill="#606060" opacity="1.000000" stroke="none" 
	d="
M816.259155,366.019714 
	C816.259216,361.889893 816.259216,358.255829 816.259216,354.258972 
	C820.512024,354.258972 824.418701,354.258972 828.712891,354.258972 
	C828.712891,398.076263 828.712891,442.071899 828.712891,486.437897 
	C824.927063,486.437897 821.019531,486.437897 816.259094,486.437897 
	C816.259094,446.540192 816.259094,406.527832 816.259155,366.019714 
z"/>
<path fill="#03B1D5" opacity="1.000000" stroke="none" 
	d="
M1304.045166,52.097420 
	C1313.138306,52.097443 1321.736816,52.097443 1330.613281,52.097443 
	C1330.613281,62.802139 1330.613281,73.030807 1330.613281,83.648514 
	C1318.962524,83.648514 1307.272461,83.648514 1295.214111,83.648514 
	C1295.214111,73.414566 1295.214111,63.063301 1295.214111,52.097401 
	C1298.014771,52.097401 1300.782593,52.097401 1304.045166,52.097420 
z"/>
<path fill="#5F5F5F" opacity="1.000000" stroke="none" 
	d="
M829.774902,330.093567 
	C825.784729,331.014801 822.085938,331.687622 817.432251,332.534149 
	C818.208313,330.584900 818.344116,329.960144 818.672119,329.461914 
	C825.679382,318.815491 832.708191,308.183319 840.014343,297.122162 
	C845.222839,299.634521 850.213440,302.041809 853.804260,303.773865 
	C846.034180,312.307678 838.050232,321.076447 829.774902,330.093567 
z"/>
<path fill="#FCFEFE" opacity="1.000000" stroke="none" 
	d="
M221.011261,161.154144 
	C213.630280,162.519699 206.395859,163.072800 202.217438,156.182739 
	C198.200150,149.558395 201.597504,143.222885 205.832108,137.830704 
	C213.987015,127.446541 224.642563,121.070320 237.876221,119.582848 
	C243.306595,118.972481 248.742157,119.612007 252.206146,124.580208 
	C255.733963,129.639954 254.191559,134.884537 251.390762,139.613144 
	C244.583084,151.106552 234.228180,157.848114 221.011261,161.154144 
z"/>
<path fill="#FCFEFE" opacity="1.000000" stroke="none" 
	d="
M346.305542,87.330093 
	C337.933685,93.106720 329.311401,97.212715 319.213715,97.010124 
	C308.441010,96.794014 303.958496,89.457611 308.578125,79.748909 
	C314.985901,66.282097 334.791718,54.800121 349.673370,55.924797 
	C358.813690,56.615570 363.582581,63.419769 359.316345,71.483116 
	C356.234894,77.307182 350.912933,81.945816 346.305542,87.330093 
z"/>
<path fill="#FEFFFF" opacity="1.000000" stroke="none" 
	d="
M1212.925293,204.836227 
	C1197.847900,229.025513 1169.440674,234.110550 1149.536743,216.488037 
	C1128.781738,198.111923 1129.461548,159.156784 1150.843628,141.599762 
	C1175.064087,121.712219 1211.875122,136.245087 1217.923950,168.123901 
	C1220.321167,180.757507 1219.201172,192.976013 1212.925293,204.836227 
z"/>
<path fill="#FEFFFF" opacity="1.000000" stroke="none" 
	d="
M1749.095215,221.024307 
	C1722.941650,205.104095 1721.200928,166.032776 1739.551636,146.317139 
	C1751.006226,134.010422 1765.311523,129.679123 1781.371216,134.359604 
	C1798.339844,139.305038 1808.073853,151.820511 1810.711182,168.862732 
	C1812.025024,177.352783 1811.750366,186.626129 1809.798462,194.985718 
	C1803.332275,222.677612 1774.464478,234.848572 1749.095215,221.024307 
z"/>
<path fill="#FCFEFE" opacity="1.000000" stroke="none" 
	d="
M1622.354614,203.236176 
	C1620.260132,217.958817 1608.762329,228.493515 1592.500977,230.901855 
	C1584.664429,232.062454 1576.885132,232.081757 1569.378540,229.111893 
	C1561.170044,225.864441 1555.715942,220.300552 1555.004639,211.092941 
	C1554.249268,201.312378 1557.874390,193.164032 1566.896484,189.439957 
	C1573.936768,186.533951 1581.956787,184.702301 1589.533813,184.726822 
	C1598.884644,184.757065 1608.229492,187.191177 1617.572754,188.614151 
	C1621.407349,189.198166 1623.464600,191.047806 1622.728760,195.335388 
	C1622.310669,197.771927 1622.505859,200.313736 1622.354614,203.236176 
z"/>
<path fill="#FDFEFE" opacity="1.000000" stroke="none" 
	d="
M841.749634,185.033417 
	C848.204773,186.357971 854.196167,187.703461 860.212463,188.926437 
	C863.105530,189.514557 864.088623,190.944199 864.122009,194.038132 
	C864.385681,218.457565 847.640869,233.802246 822.741882,231.515259 
	C818.646667,231.139114 814.470581,230.322052 810.615112,228.926285 
	C802.031494,225.818817 796.861816,219.592606 796.409729,210.296890 
	C795.958618,201.020737 799.872314,193.830902 808.129517,189.309250 
	C815.826660,185.094330 824.265991,184.411545 832.819092,184.528595 
	C835.646362,184.567291 838.470520,184.838898 841.749634,185.033417 
z"/>
</svg>